<?xml version="1.0" encoding="utf-8"?>
<!-- Generator: Adobe Illustrator 22.1.0, SVG Export Plug-In . SVG Version: 6.00 Build 0)  -->
<svg version="1.1" id="Warstwa_1" xmlns="http://www.w3.org/2000/svg" xmlns:xlink="http://www.w3.org/1999/xlink" x="0px" y="0px"
	 viewBox="0 0 1634.8 345.8" style="enable-background:new 0 0 1634.8 345.8;" xml:space="preserve">
<style type="text/css">
	.st0{fill:#eeecec;}
	.st1{fill:#FF7700;}
</style>
<g>
	<g>
		<path class="st0" d="M427.6,97.4h20.3c15.6,0,24.9,12,24.9,24.3s-9.3,24.2-24.9,24.2h-11V171h-9.3V97.4z M446,137.8
			c11.1,0,17.5-5.4,17.5-16.1c0-10.6-6.4-16.2-17.5-16.2h-9.1v32.2H446z"/>
		<path class="st0" d="M502.1,97.4h9.3v44.2c0,12,6.7,21.9,19.6,21.9c12.9,0,19.6-9.9,19.6-21.9V97.4h9.3v46.9
			c0,15.9-12,27.9-29,27.9c-16.7,0-28.7-12-28.7-27.9V97.4z"/>
		<path class="st0" d="M606.6,106.1h-18.4v-8.7h46.1v8.7h-18.4V171h-9.3V106.1z"/>
	</g>
</g>
<g>
	<g>
		<path class="st0" d="M474.4,296.6c19.2-3.5,32.1-18.1,32.1-37.1c0-22.9-17-38.4-42.2-38.4h-36.7v122.8h20.8v-45.2l43,45.2h29.2
			L474.4,296.6z M485.7,259.6c0,13-9.2,19.6-27.4,19.6c-5.2,0-8.1,0-9.9,0v-39.1h15.6C477.5,240.1,485.7,247.4,485.7,259.6z"/>
		<path class="st0" d="M612.3,219.3c-40.6,0-64.9,32.2-64.9,63.2s24.3,63.2,64.9,63.2c40.6,0,64.9-32.2,64.9-63.2
			S653,219.3,612.3,219.3z M655.6,282.5c0,27.2-22,43.4-43.2,43.4c-21.2,0-43.2-16.2-43.2-43.4c0-27.2,22-43.4,43.2-43.4
			C633.6,239.1,655.6,255.4,655.6,282.5z"/>
		<path class="st0" d="M810.7,312.1l-2.3,2.1c-8.3,7.8-17.8,11.6-29.1,11.6c-20.8,0-43.2-16.6-43.2-43.4c0-23.9,19.4-43.4,43.2-43.4
			c10.1,0,20.1,4,28.1,11.2l2.2,2l14-15.3l-2.2-2c-10.5-9.7-26.7-15.7-42.1-15.7c-40.6,0-64.9,32.2-64.9,63.2s24.3,63.2,64.9,63.2
			c15.1,0,31.5-6.3,42.6-16.5l2.2-2L810.7,312.1z"/>
		<polygon class="st0" points="912.5,281.2 967.7,221.1 940.6,221.1 897.3,269.7 897.3,221.1 876.5,221.1 876.5,343.9 897.3,343.9 
			897.3,295.6 939.5,343.9 968.8,343.9 		"/>
		<polygon class="st0" points="1092.4,241 1092.4,221.1 1026,221.1 1026,343.9 1092.4,343.9 1092.4,324.1 1046.7,324.1 
			1046.7,291.8 1092.4,291.8 1092.4,272 1046.7,272 1046.7,241 		"/>
		<polygon class="st0" points="1149.9,221.1 1149.9,241 1179.1,241 1179.1,343.9 1199.9,343.9 1199.9,241 1229,241 1229,221.1 		"/>
		<polygon class="st0" points="1307.4,324.1 1307.4,221.1 1286.7,221.1 1286.7,343.9 1348.5,343.9 1348.5,324.1 		"/>
		<path class="st0" d="M1462.1,221.1h-17l-49.9,122.8h22.7l10.6-27.2h50.3l10.6,27.2h22.7L1462.1,221.1z M1471.4,297.8h-35.5
			l17.7-45.9L1471.4,297.8z"/>
		<path class="st0" d="M1616.2,278.5c6.8-5.3,10.5-13,10.5-22.1c0-11.6-4.9-21.5-13.9-28c-7.2-5.1-15.6-7.3-28-7.3h-33.4v122.8h45.3
			c21.8,0,38.2-15.5,38.2-36C1634.8,294.1,1627.6,283,1616.2,278.5z M1587.6,272h-15.4v-31.9h12.5c7.7,0,13.1,1.5,16.4,4.6
			c3.2,2.9,4.9,7.1,4.9,12.1C1605.9,267.3,1596.7,272,1587.6,272z M1614,308c0,11.4-7.4,17-22.5,17h-19.4v-34.1h19.4
			C1611.9,290.9,1614,302.9,1614,308z"/>
	</g>
</g>
<path class="st1" d="M55.7,264.4l28.1,14l167.1-167.1c31.2-30.1,61.2-50.3,83.2-62.9C254.4-19.6,134.6-16,59.3,59.3
	C-5,123.6-17,220.4,23.3,296.9L55.7,264.4z"/>
<path class="st1" d="M288.7,149.2L120.1,317.8l14,28h211.7v-270C333.1,96.5,314.5,122.4,288.7,149.2z"/>
</svg>
